<svg width="555" height="677" viewBox="0 0 555 677" fill="none" xmlns="http://www.w3.org/2000/svg">
<path d="M213.6 500.166C359.599 500.033 366.267 499.765 386.934 494.565C464.267 475.099 520.667 413.499 538.134 329.499C544.4 299.365 545.734 229.632 540.667 191.632C533.6 138.032 512.533 93.7657 477.333 58.6992C454.267 35.4995 430.533 20.832 400 10.832C383.6 5.49884 372.133 3.23233 353.333 1.49902C336.528 -0.10083 73.0949 -0.63385 71.5996 0.96582C71.0665 1.37769 70.667 24.1732 70.667 51.499V101.232L210.4 101.632C349.197 102.032 350 102.166 359.066 104.966C400.399 118.166 429.6 149.632 440 192.165C445.733 215.498 446.8 277.365 442 302.565C432 354.299 395.333 391.499 347.066 398.565C340.798 399.499 291.198 400.032 204 400.032H70.667L70.9336 450.032L71.333 500.166H213.6Z" fill="#202020"/>
<path d="M487.985 675.084V563.701H501.389V663.435H554.208V675.084H487.985Z" fill="black"/>
<path d="M392.303 675.084V563.701H405.707V663.435H458.526V675.084H392.303Z" fill="black"/>
<path d="M354.227 675.084L344.812 643.328H305.716L296.302 675.084H282.419L316.568 563.701H334.28L368.429 675.084H354.227ZM325.982 577.903H324.546L308.908 631.68H341.621L325.982 577.903Z" fill="black"/>
<path d="M233.332 676.998C219.715 676.998 209.556 672.052 202.854 662.158C196.258 652.264 192.96 638.009 192.96 619.392C192.96 600.775 196.258 586.52 202.854 576.626C209.556 566.733 219.715 561.786 233.332 561.786C238.439 561.786 242.853 562.478 246.577 563.861C250.3 565.244 253.492 567.105 256.151 569.446C258.811 571.786 261.045 574.446 262.853 577.424C264.662 580.297 266.258 583.222 267.641 586.201L256.151 591.467C255.194 589.02 254.077 586.733 252.8 584.605C251.524 582.371 249.981 580.456 248.173 578.861C246.47 577.158 244.396 575.829 241.949 574.871C239.609 573.914 236.736 573.435 233.332 573.435C224.502 573.435 217.907 576.786 213.545 583.488C209.29 590.19 207.162 599.126 207.162 610.297V628.488C207.162 639.658 209.29 648.594 213.545 655.296C217.907 661.998 224.502 665.35 233.332 665.35C236.736 665.35 239.609 664.871 241.949 663.913C244.396 662.956 246.47 661.679 248.173 660.084C249.981 658.381 251.524 656.467 252.8 654.339C254.077 652.105 255.194 649.764 256.151 647.318L267.641 652.584C266.258 655.669 264.662 658.647 262.853 661.52C261.045 664.392 258.811 666.998 256.151 669.339C253.492 671.679 250.3 673.541 246.577 674.924C242.853 676.307 238.439 676.998 233.332 676.998Z" fill="black"/>
<path d="M135.416 676.999C129.459 676.999 124.086 675.988 119.299 673.967C114.618 671.946 110.576 669.073 107.171 665.35C103.874 661.52 101.32 656.999 99.5118 651.786C97.7033 646.467 96.7991 640.563 96.7991 634.074C96.7991 627.478 97.7033 621.52 99.5118 616.201C101.427 610.882 104.033 606.361 107.331 602.638C110.629 598.808 114.565 595.882 119.139 593.861C123.82 591.84 128.98 590.829 134.618 590.829C140.15 590.829 145.15 591.84 149.618 593.861C154.193 595.882 158.076 598.701 161.267 602.318C164.458 605.829 166.905 610.031 168.607 614.925C170.31 619.818 171.161 625.191 171.161 631.042V637.105H110.203V640.935C110.203 644.552 110.788 647.903 111.959 650.988C113.129 654.074 114.778 656.733 116.905 658.967C119.139 661.201 121.799 662.956 124.884 664.233C128.076 665.403 131.586 665.988 135.416 665.988C140.948 665.988 145.735 664.712 149.778 662.159C153.82 659.605 156.905 656.095 159.033 651.627L168.448 658.01C166.001 663.542 161.905 668.116 156.161 671.733C150.522 675.244 143.607 676.999 135.416 676.999ZM134.618 601.361C131.108 601.361 127.863 601.999 124.884 603.276C121.905 604.552 119.299 606.308 117.065 608.542C114.937 610.776 113.235 613.435 111.959 616.52C110.788 619.499 110.203 622.797 110.203 626.414V627.531H157.437V625.776C157.437 622.159 156.852 618.861 155.682 615.882C154.618 612.903 153.076 610.35 151.054 608.223C149.139 605.989 146.746 604.286 143.873 603.116C141.107 601.946 138.022 601.361 134.618 601.361Z" fill="black"/>
<path d="M58.2445 661.679H57.6062C52.2871 671.892 43.8297 676.999 32.234 676.999C22.1276 676.999 14.2021 673.222 8.45743 665.669C2.81914 658.116 0 647.531 0 633.914C0 620.297 2.81914 609.712 8.45743 602.158C14.2021 594.605 22.1276 590.829 32.234 590.829C43.8297 590.829 52.2871 595.935 57.6062 606.148H58.2445V556.999H71.0105V675.084H58.2445V661.679ZM37.1808 665.669C40.0531 665.669 42.7659 665.296 45.319 664.552C47.8722 663.807 50.1063 662.743 52.0211 661.36C53.936 659.871 55.4254 658.116 56.4892 656.094C57.6594 653.967 58.2445 651.52 58.2445 648.754V619.073C58.2445 616.307 57.6594 613.914 56.4892 611.892C55.4254 609.765 53.936 608.009 52.0211 606.626C50.1063 605.137 47.8722 604.02 45.319 603.275C42.7659 602.531 40.0531 602.158 37.1808 602.158C29.734 602.158 23.9361 604.446 19.7872 609.02C15.7446 613.488 13.7234 619.446 13.7234 626.892V640.935C13.7234 648.382 15.7446 654.392 19.7872 658.967C23.9361 663.435 29.734 665.669 37.1808 665.669Z" fill="black"/>
</svg>
